<svg xmlns="http://www.w3.org/2000/svg" viewBox="0 0 72.67584 69.184999" width="72.676" height="69.185"><path d="M62.417 31.357v-4.702H14.973v4.702H.012s-.427 8.122 3.847 11.968c4.69 4.222 11.114 5.984 11.114 5.984v2.992h8.369c.545.539.955 1.341.955 2.546 0 2.117-1.43 2.92-2.515 3.225h-6.81v11.113h47.445V58.072H54.51s-1.07-11.327 7.906-17.738c3.698-2.643 10.259-3.848 10.259-3.848v-5.129h-10.26zm-32.36-7.56l11.588-2.356-.52-7.646 22.502-3.5-1.977-9.293-21.856 6.165L37.388.278 25.802 2.635l1.15 10.788 3.106 10.374zM14.844 11.458l9.167 12h2.833l-5.25-10.208 2.27.065-4.52-11.523-7.5.333 5.167 9.167-2.167.166zM9.176 8.792l-4.666.166 16.167 14L9.176 8.792zm2.667-2.542L8.093 0H3.468l5.125 6.25h3.25zm4 17.208l-6.5-3.958-1.688 3.958h8.188z"/></svg>